<svg width="512" height="512" viewBox="0 0 512 512" fill="none" xmlns="http://www.w3.org/2000/svg">
<rect x="13.5" y="13.5" width="485" height="485" rx="242.5" fill="url(#paint0_radial_255_70)"/>
<rect x="13.5" y="13.5" width="485" height="485" rx="242.5" stroke="black" stroke-width="27"/>
<path d="M120.04 373.14C117.507 373.14 115.734 372.253 114.72 370.48C113.707 368.707 113.2 366.807 113.2 364.78C113.454 360.473 114.467 358.067 116.24 357.56C118.014 357.053 120.167 356.8 122.7 356.8C130.807 356.8 136.507 355.407 139.8 352.62C143.094 349.58 145.12 345.907 145.88 341.6C146.894 337.04 147.527 332.353 147.78 327.54V176.68C147.527 171.867 146.894 167.307 145.88 163C145.12 158.44 143.094 154.767 139.8 151.98C136.507 148.94 130.807 147.42 122.7 147.42C120.167 147.42 118.014 147.167 116.24 146.66C114.467 146.153 113.454 143.747 113.2 139.44C113.2 137.413 113.707 135.513 114.72 133.74C115.734 131.967 117.507 131.08 120.04 131.08C128.147 131.333 135.747 131.587 142.84 131.84C150.187 132.093 157.66 132.22 165.26 132.22C180.714 132.22 196.547 131.84 212.76 131.08C215.04 131.08 216.687 131.967 217.7 133.74C218.967 135.513 219.6 137.413 219.6 139.44C219.347 143.747 218.334 146.153 216.56 146.66C214.787 147.167 212.507 147.42 209.72 147.42C201.867 147.42 196.167 148.94 192.62 151.98C189.327 154.767 187.3 158.44 186.54 163C185.78 167.307 185.274 171.867 185.02 176.68V327.54C185.274 332.353 185.78 337.04 186.54 341.6C187.3 345.907 189.327 349.58 192.62 352.62C196.167 355.407 201.867 356.8 209.72 356.8C212.507 356.8 214.787 357.053 216.56 357.56C218.334 358.067 219.347 360.473 219.6 364.78C219.6 366.807 218.967 368.707 217.7 370.48C216.687 372.253 215.04 373.14 212.76 373.14C196.547 372.38 180.84 372 165.64 372C158.04 372 150.567 372 143.22 372C135.874 372.253 128.147 372.633 120.04 373.14ZM333.389 379.6C307.043 379.6 286.776 375.04 272.589 365.92C258.403 356.547 251.309 342.867 251.309 324.88C251.309 315.76 254.349 308.287 260.429 302.46C266.763 296.38 274.869 293.34 284.749 293.34C291.336 293.593 295.896 295.24 298.429 298.28C301.216 301.32 302.609 303.6 302.609 305.12C302.609 305.627 301.469 306.513 299.189 307.78C296.909 308.793 294.629 310.82 292.349 313.86C290.069 316.647 288.929 321.08 288.929 327.16C288.929 338.56 292.476 347.68 299.569 354.52C306.663 361.107 317.936 364.4 333.389 364.4C344.283 364.4 353.529 362.373 361.129 358.32C368.983 354.013 374.936 348.567 378.989 341.98C383.043 335.14 385.069 328.173 385.069 321.08C385.069 310.44 382.029 301.7 375.949 294.86C369.869 288.02 361.889 282.193 352.009 277.38C342.383 272.313 332.123 267.5 321.229 262.94C310.336 258.38 299.949 253.187 290.069 247.36C280.443 241.533 272.463 234.313 266.129 225.7C259.796 216.833 256.503 205.813 256.249 192.64C255.996 176.68 259.416 163.76 266.509 153.88C273.603 143.747 283.483 136.4 296.149 131.84C308.816 127.027 322.876 124.62 338.329 124.62C349.729 124.62 360.876 126.267 371.769 129.56C382.916 132.853 392.036 138.047 399.129 145.14C406.476 151.98 410.149 161.1 410.149 172.5C410.149 181.62 406.983 189.22 400.649 195.3C394.569 201.127 386.589 204.04 376.709 204.04C370.123 203.533 365.436 201.887 362.649 199.1C360.116 196.06 358.849 193.78 358.849 192.26C358.849 191.5 360.369 190.613 363.409 189.6C366.449 188.333 369.489 186.307 372.529 183.52C375.569 180.48 377.089 176.047 377.089 170.22C377.089 160.593 373.416 153.247 366.069 148.18C358.723 142.86 349.603 140.2 338.709 140.2C322.243 140.2 310.209 144.127 302.609 151.98C295.263 159.58 291.589 168.193 291.589 177.82C291.589 187.193 294.123 194.793 299.189 200.62C304.256 206.447 311.856 212.147 321.989 217.72C333.389 223.8 344.916 229.5 356.569 234.82C368.223 239.887 378.989 245.587 388.869 251.92C399.003 258.253 407.109 266.233 413.189 275.86C419.269 285.233 422.309 297.393 422.309 312.34C422.309 325.26 418.256 336.787 410.149 346.92C402.296 357.053 391.656 365.033 378.229 370.86C364.803 376.687 349.856 379.6 333.389 379.6Z" fill="black"/>
<defs>
<radialGradient id="paint0_radial_255_70" cx="0" cy="0" r="1" gradientUnits="userSpaceOnUse" gradientTransform="translate(256 256) rotate(90) scale(256)">
<stop stop-color="#FFCF9E"/>
<stop offset="0.33" stop-color="#FAC7FF"/>
<stop offset="0.66" stop-color="#9BE1FC"/>
<stop offset="1" stop-color="#AEF8AA"/>
</radialGradient>
</defs>
</svg>
