<svg viewBox="0 0 53 57" fill="none" xmlns="http://www.w3.org/2000/svg">
<path d="M19.5005 47.067C7.00049 50.817 7.00049 40.817 2.00049 39.567M37.0005 54.567V44.892C37.0943 43.6999 36.9332 42.5015 36.528 41.3765C36.1228 40.2514 35.4828 39.2255 34.6505 38.367C42.5005 37.492 50.7505 34.517 50.7505 20.867C50.7498 17.3766 49.4072 14.02 47.0005 11.492C48.1401 8.43825 48.0596 5.06286 46.7755 2.06698C46.7755 2.06698 43.8255 1.19198 37.0005 5.76698C31.2705 4.21404 25.2305 4.21404 19.5005 5.76698C12.6755 1.19198 9.72549 2.06698 9.72549 2.06698C8.44143 5.06286 8.36085 8.43825 9.50049 11.492C7.07581 14.0387 5.73179 17.4256 5.75049 20.942C5.75049 34.492 14.0005 37.467 21.8505 38.442C21.028 39.2919 20.3936 40.3055 19.9888 41.4168C19.5839 42.5281 19.4175 43.7121 19.5005 44.892V54.567" stroke="currentColor" stroke-linecap="round" stroke-linejoin="round"/>
</svg>
